<svg width="43" height="43" viewBox="0 0 43 43" fill="none" xmlns="http://www.w3.org/2000/svg">
<circle cx="21.5" cy="21.8926" r="21" fill="url(#paint0_linear_104_803)"/>
<path d="M20.7271 12.2405C20.3441 12.4396 20.0607 12.7613 19.9229 13.1519C19.8233 13.4353 19.808 14.0174 19.808 16.8435V20.2058H16.4457C12.777 20.2058 12.6545 20.2212 12.2026 20.6501C11.8503 20.9871 11.6895 21.37 11.6895 21.8908C11.6895 22.4499 11.8656 22.8482 12.2639 23.1775C12.7387 23.5605 12.8689 23.5758 16.4687 23.5758H19.808V26.9381C19.808 30.6068 19.8233 30.7293 20.2522 31.1812C20.5892 31.5335 20.9722 31.6943 21.493 31.6943C22.0521 31.6943 22.4503 31.5182 22.7797 31.1199C23.1626 30.6451 23.178 30.5148 23.178 26.9151V23.5758H26.5173C30.117 23.5758 30.2472 23.5605 30.7221 23.1775C31.4803 22.5495 31.5109 21.3394 30.7833 20.6501C30.3315 20.2212 30.2089 20.2058 26.5403 20.2058H23.178V16.8665C23.178 14.5841 23.1473 13.4276 23.0937 13.2285C22.9788 12.8455 22.6188 12.4243 22.2512 12.2405C21.8606 12.0413 21.1024 12.0413 20.7271 12.2405Z" fill="white"/>
<defs>
<linearGradient id="paint0_linear_104_803" x1="38.3164" y1="4.66908" x2="3.72823" y2="34.1843" gradientUnits="userSpaceOnUse">
<stop stop-color="#4C6DD6"/>
<stop offset="1" stop-color="#EA6CD7"/>
</linearGradient>
</defs>
</svg>
