<svg width="24" height="25" viewBox="0 0 24 25" fill="none" xmlns="http://www.w3.org/2000/svg">
<g clip-path="url(#clip0_100_479)">
<path d="M2.71925 1.8582C2.04894 2.08789 1.54738 2.51913 1.25675 3.11445C0.778625 4.09882 0.933313 5.16757 1.66925 5.96445L1.93644 6.25038L1.67394 6.52226C1.388 6.82695 1.163 7.23476 1.05519 7.64257C0.952063 8.04101 0.952063 13.4598 1.05519 13.8582C1.27081 14.6926 1.95519 15.4191 2.738 15.6488L2.93019 15.7051L3.49269 18.4894C3.81613 20.0879 4.09738 21.3535 4.14894 21.4613C4.28019 21.7238 4.56144 21.991 4.87081 22.1316C5.25519 22.3098 5.7755 22.3098 6.14581 22.1269C6.45519 21.9769 6.76456 21.6582 6.89581 21.3676C7.09269 20.9223 7.088 20.866 6.40831 17.4863L5.78488 14.3551L5.89269 14.041C5.97238 13.8019 6.0005 13.6191 6.0005 13.2816V12.8363L4.5755 11.4066C2.95831 9.78945 2.89738 9.70507 2.89738 9.11913C2.89738 8.9457 2.92081 8.74413 2.95363 8.66913L3.00519 8.5332L4.74894 10.2676C6.70831 12.2129 6.70831 12.2129 7.33644 12.241C7.81456 12.2644 8.15675 12.1426 8.45675 11.8566C8.70988 11.6082 8.813 11.4207 8.888 11.0785L8.94425 10.8207L9.04738 11.0551C9.10363 11.1816 9.7505 12.7426 10.4864 14.5191L11.8271 17.7488L11.4427 18.691C11.2271 19.2254 11.063 19.6988 11.063 19.7879C11.063 19.9051 11.1052 19.9894 11.2224 20.1066C11.3114 20.1957 11.4099 20.266 11.4427 20.266C11.4943 20.266 11.5083 20.3691 11.5083 20.7207C11.5083 21.1098 11.5271 21.2129 11.6208 21.4004C11.7708 21.7098 12.0568 21.9863 12.3661 22.1316C12.7552 22.3098 13.2755 22.3098 13.6458 22.1269C13.9505 21.9769 14.2646 21.6582 14.3958 21.3723C14.5083 21.1144 14.5505 20.716 14.4943 20.4676L14.4474 20.266H16.5896H18.7271V20.7441C18.7271 21.1894 18.7364 21.2457 18.863 21.4754C19.5614 22.7363 21.4739 22.4176 21.7036 21.0019C21.7927 20.4348 21.6239 20.0223 21.038 19.3754L20.9161 19.2348H16.6411C13.238 19.2348 12.3708 19.2207 12.3896 19.1785C12.3989 19.1457 12.4927 18.9207 12.5911 18.6816L12.7646 18.2504H17.1099H21.4552L21.5677 18.1379C21.638 18.0676 22.1161 16.9801 22.8427 15.2176C24.0146 12.3816 24.0755 12.1988 23.9536 11.9644C23.8224 11.7254 24.1411 11.7348 17.0536 11.7348H10.4771L10.1114 10.8488C9.89113 10.3144 9.69425 9.9207 9.62394 9.85038C9.52081 9.75663 9.4505 9.73788 9.01925 9.71913L8.53175 9.6957L6.80206 7.96601L5.06769 6.24101L5.32081 5.9832C5.78019 5.50976 6.0005 4.95195 6.0005 4.26288C6.0005 3.50351 5.79425 2.99726 5.27394 2.47695C4.75363 1.95664 4.24269 1.75039 3.46925 1.75039C3.13175 1.75039 2.94894 1.77851 2.71925 1.8582ZM22.4255 13.4551C22.388 13.5535 22.2989 13.7644 22.2333 13.9238L22.1161 14.2191H16.8099H11.5036L11.3114 13.7504L11.1239 13.2816H16.8099H22.5005L22.4255 13.4551ZM21.3661 16.0098C21.3146 16.1457 21.2255 16.3707 21.1693 16.5066L21.0708 16.7504L16.8099 16.741L12.5489 16.7269L12.3474 16.2441L12.1458 15.766H16.8052H21.4693L21.3661 16.0098Z" fill="white"/>
<path d="M1.14894 15.8694C1.13957 15.9023 0.923942 16.9523 0.675505 18.2038C0.173942 20.7257 0.150504 20.9413 0.338005 21.3538C0.55363 21.8226 0.844254 22.071 1.34113 22.2163C1.88957 22.3757 2.5505 22.1601 2.90675 21.7101C3.00988 21.5835 3.09425 21.4429 3.09425 21.396C3.09425 21.3304 2.20832 16.8444 2.13332 16.5304C2.11925 16.4741 2.01144 16.3757 1.86613 16.2913C1.73019 16.2163 1.51925 16.0757 1.39269 15.9819C1.24269 15.8694 1.163 15.8319 1.14894 15.8694Z" fill="white"/>
</g>
<defs>
<clipPath id="clip0_100_479">
<rect width="24" height="24" fill="white" transform="translate(0.000488281 0.250977)"/>
</clipPath>
</defs>
</svg>
