<svg width="24" height="25" viewBox="0 0 24 25" fill="none" xmlns="http://www.w3.org/2000/svg">
<path d="M9 22.5H15C20 22.5 22 20.5 22 15.5V9.5C22 4.5 20 2.5 15 2.5H9C4 2.5 2 4.5 2 9.5V15.5C2 20.5 4 22.5 9 22.5Z" stroke="#484C52" stroke-width="1.5" stroke-linecap="round" stroke-linejoin="round"/>
<path d="M18.38 15.77V8.07999C18.38 7.30999 17.76 6.75 17 6.81H16.96C15.62 6.92 13.59 7.61001 12.45 8.32001L12.34 8.39002C12.16 8.50002 11.85 8.50002 11.66 8.39002L11.5 8.29001C10.37 7.58001 8.34 6.90999 7 6.79999C6.24 6.73999 5.62 7.31001 5.62 8.07001V15.77C5.62 16.38 6.11998 16.96 6.72998 17.03L6.90997 17.06C8.28997 17.24 10.43 17.95 11.65 18.62L11.68 18.63C11.85 18.73 12.13 18.73 12.29 18.63C13.51 17.95 15.66 17.25 17.05 17.06L17.26 17.03C17.88 16.96 18.38 16.39 18.38 15.77Z" stroke="#484C52" stroke-width="1.5" stroke-linecap="round" stroke-linejoin="round"/>
<path d="M12 8.6001V18.1601" stroke="#484C52" stroke-width="1.5" stroke-linecap="round" stroke-linejoin="round"/>
</svg>
