<svg width="53" height="58" viewBox="0 0 53 58" fill="none" xmlns="http://www.w3.org/2000/svg">
<circle cx="27" cy="26.6733" r="25.8794" fill="#FD8D14"/>
<g filter="url(#filter0_d_17_1835)">
<path d="M19.2782 18.545C18.41 19.3559 17.3772 20.4049 17.03 21.0992C16.2337 22.6917 17.4282 27.0713 21.8078 31.8491C25.3114 35.6712 29.638 37.3171 32.1596 37.5825C33.7439 37.7493 35.2235 36.2289 36.1045 35.0757C36.6417 34.3724 36.5153 33.4038 35.8999 32.7678L33.7579 30.5545C32.9133 29.6818 31.4971 29.763 30.679 30.6605C30.1881 31.1992 29.6871 31.6919 29.3726 31.8492C28.0784 32.4963 22.206 26.2752 22.604 25.0806C22.8733 24.6768 23.3245 24.2274 23.804 23.8095C24.7699 22.9675 24.908 21.453 23.9808 20.5686L21.9074 18.5909C21.1706 17.888 20.0224 17.8499 19.2782 18.545Z" fill="#FD8D14"/>
<path d="M19.2782 18.545C18.41 19.3559 17.3772 20.4049 17.03 21.0992C16.2337 22.6917 17.4282 27.0713 21.8078 31.8491C25.3114 35.6712 29.638 37.3171 32.1596 37.5825C33.7439 37.7493 35.2235 36.2289 36.1045 35.0757C36.6417 34.3724 36.5153 33.4038 35.8999 32.7678L33.7579 30.5545C32.9133 29.6818 31.4971 29.763 30.679 30.6605C30.1881 31.1992 29.6871 31.6919 29.3726 31.8492C28.0784 32.4963 22.206 26.2752 22.604 25.0806C22.8733 24.6768 23.3245 24.2274 23.804 23.8095C24.7699 22.9675 24.908 21.453 23.9808 20.5686L21.9074 18.5909C21.1706 17.888 20.0224 17.8499 19.2782 18.545Z" stroke="white" stroke-width="2"/>
</g>
<path fill-rule="evenodd" clip-rule="evenodd" d="M28.5763 15.7197C28.024 15.7197 27.5763 16.1674 27.5763 16.7197C27.5763 17.272 28.024 17.7197 28.5763 17.7197C30.2109 17.7197 32.2636 18.7326 33.9509 20.373C35.6342 22.0096 36.7336 24.0568 36.7336 25.8771C36.7336 26.4293 37.1813 26.8771 37.7336 26.8771C38.2859 26.8771 38.7336 26.4293 38.7336 25.8771C38.7336 23.3177 37.2451 20.7863 35.3451 18.939C33.449 17.0957 30.9231 15.7197 28.5763 15.7197ZM28.5763 19.7012C28.024 19.7012 27.5763 20.1489 27.5763 20.7012C27.5763 21.2535 28.024 21.7012 28.5763 21.7012C28.6965 21.7012 29.0101 21.7528 29.4596 21.9337C29.8893 22.1066 30.3807 22.3729 30.8514 22.7367C31.7917 23.4632 32.5966 24.5322 32.7583 25.9875C32.8193 26.5364 33.3137 26.9319 33.8626 26.8709C34.4115 26.8099 34.807 26.3155 34.7461 25.7666C34.5096 23.6387 33.3238 22.1196 32.0743 21.1541C31.4501 20.6717 30.7968 20.316 30.2063 20.0783C29.6355 19.8486 29.0533 19.7012 28.5763 19.7012Z" fill="white"/>
<defs>
<filter id="filter0_d_17_1835" x="0.799927" y="6.04314" width="51.6443" height="51.5521" filterUnits="userSpaceOnUse" color-interpolation-filters="sRGB">
<feFlood flood-opacity="0" result="BackgroundImageFix"/>
<feColorMatrix in="SourceAlpha" type="matrix" values="0 0 0 0 0 0 0 0 0 0 0 0 0 0 0 0 0 0 127 0" result="hardAlpha"/>
<feOffset dy="4"/>
<feGaussianBlur stdDeviation="7.5"/>
<feColorMatrix type="matrix" values="0 0 0 0 0 0 0 0 0 0 0 0 0 0 0 0 0 0 0.15 0"/>
<feBlend mode="normal" in2="BackgroundImageFix" result="effect1_dropShadow_17_1835"/>
<feBlend mode="normal" in="SourceGraphic" in2="effect1_dropShadow_17_1835" result="shape"/>
</filter>
</defs>
</svg>
