<svg width="18" height="20" viewBox="0 0 18 20" fill="none" xmlns="http://www.w3.org/2000/svg">
<path d="M0.852051 17.761C0.85192 18.0024 0.899331 18.2414 0.991578 18.4644C1.08382 18.6875 1.2191 18.8902 1.38968 19.061C1.56026 19.2317 1.76281 19.3672 1.98575 19.4597C2.2087 19.5522 2.44768 19.5999 2.68905 19.6H16.1631C16.6502 19.5997 17.1173 19.4061 17.4617 19.0617C17.8062 18.7172 17.9998 18.2501 18.0001 17.763V7.349H0.852051V17.761ZM13.1011 10.261C13.1016 10.1394 13.1501 10.023 13.2361 9.93702C13.322 9.85105 13.4385 9.80253 13.5601 9.802H15.0911C15.2126 9.80253 15.3291 9.85105 15.415 9.93702C15.501 10.023 15.5495 10.1394 15.5501 10.261V11.792C15.5495 11.9136 15.501 12.03 15.415 12.116C15.3291 12.2019 15.2126 12.2505 15.0911 12.251H13.5601C13.4385 12.2505 13.322 12.2019 13.2361 12.116C13.1501 12.03 13.1016 11.9136 13.1011 11.792V10.261ZM13.1011 15.161C13.1016 15.0394 13.1501 14.923 13.2361 14.837C13.322 14.7511 13.4385 14.7025 13.5601 14.702H15.0911C15.2126 14.7025 15.3291 14.7511 15.415 14.837C15.501 14.923 15.5495 15.0394 15.5501 15.161V16.692C15.5495 16.8136 15.501 16.93 15.415 17.016C15.3291 17.1019 15.2126 17.1505 15.0911 17.151H13.5601C13.4385 17.1505 13.322 17.1019 13.2361 17.016C13.1501 16.93 13.1016 16.8136 13.1011 16.692V15.161ZM8.20105 10.261C8.20105 10.1391 8.24934 10.0221 8.33537 9.93573C8.42139 9.84933 8.53813 9.80053 8.66005 9.8H10.1921C10.3136 9.80053 10.4301 9.84905 10.516 9.93502C10.602 10.021 10.6505 10.1374 10.6511 10.259V11.79C10.6505 11.9116 10.602 12.028 10.516 12.114C10.4301 12.1999 10.3136 12.2485 10.1921 12.249H8.66005C8.53848 12.2485 8.42204 12.1999 8.33607 12.114C8.25011 12.028 8.20158 11.9116 8.20105 11.79V10.261ZM8.20105 15.161C8.20158 15.0394 8.25011 14.923 8.33607 14.837C8.42204 14.7511 8.53848 14.7025 8.66005 14.702H10.1921C10.3136 14.7025 10.4301 14.7511 10.516 14.837C10.602 14.923 10.6505 15.0394 10.6511 15.161V16.692C10.6505 16.8136 10.602 16.93 10.516 17.016C10.4301 17.1019 10.3136 17.1505 10.1921 17.151H8.66005C8.53848 17.1505 8.42204 17.1019 8.33607 17.016C8.25011 16.93 8.20158 16.8136 8.20105 16.692V15.161ZM3.30105 10.261C3.30105 10.1389 3.34948 10.0218 3.43572 9.93538C3.52196 9.84895 3.63896 9.80027 3.76105 9.8H5.29205C5.41362 9.80053 5.53007 9.84905 5.61603 9.93502C5.702 10.021 5.75052 10.1374 5.75105 10.259V11.79C5.75052 11.9116 5.702 12.028 5.61603 12.114C5.53007 12.1999 5.41362 12.2485 5.29205 12.249H3.76105C3.63948 12.2485 3.52304 12.1999 3.43707 12.114C3.3511 12.028 3.30258 11.9116 3.30205 11.79L3.30105 10.261ZM3.30105 15.161C3.30158 15.0394 3.35011 14.923 3.43607 14.837C3.52204 14.7511 3.63848 14.7025 3.76005 14.702H5.29205C5.41362 14.7025 5.53007 14.7511 5.61603 14.837C5.702 14.923 5.75052 15.0394 5.75105 15.161V16.692C5.75052 16.8136 5.702 16.93 5.61603 17.016C5.53007 17.1019 5.41362 17.1505 5.29205 17.151H3.76105C3.63948 17.1505 3.52304 17.1019 3.43707 17.016C3.3511 16.93 3.30258 16.8136 3.30205 16.692L3.30105 15.161ZM16.1631 2.45H14.3251V0.612C14.3245 0.44985 14.2599 0.294491 14.1452 0.179833C14.0306 0.065175 13.8752 0.000527322 13.7131 0L12.4881 0C12.3259 0.000527322 12.1705 0.065175 12.0559 0.179833C11.9412 0.294491 11.8766 0.44985 11.8761 0.612V2.45H6.97605V0.612C6.97552 0.44985 6.91088 0.294491 6.79622 0.179833C6.68156 0.065175 6.5262 0.000527322 6.36405 0L5.13905 0C4.9769 0.000527322 4.82154 0.065175 4.70688 0.179833C4.59223 0.294491 4.52758 0.44985 4.52705 0.612V2.45H2.68905C2.20193 2.45026 1.73484 2.64389 1.39039 2.98834C1.04594 3.33278 0.852316 3.79988 0.852051 4.287V6.124H18.0001V4.287C17.9998 3.79988 17.8062 3.33278 17.4617 2.98834C17.1173 2.64389 16.6502 2.45026 16.1631 2.45Z" fill="#EE9692"/>
</svg>
