<svg width="24" height="25" viewBox="0 0 24 25" fill="none" xmlns="http://www.w3.org/2000/svg">
<path d="M12 2.29736C6.49 2.29736 2 6.78736 2 12.2974C2 17.8074 6.49 22.2974 12 22.2974C17.51 22.2974 22 17.8074 22 12.2974C22 6.78736 17.51 2.29736 12 2.29736ZM16.35 15.8674C16.21 16.1074 15.96 16.2374 15.7 16.2374C15.57 16.2374 15.44 16.2074 15.32 16.1274L12.22 14.2774C11.45 13.8174 10.88 12.8074 10.88 11.9174V7.81736C10.88 7.40736 11.22 7.06736 11.63 7.06736C12.04 7.06736 12.38 7.40736 12.38 7.81736V11.9174C12.38 12.2774 12.68 12.8074 12.99 12.9874L16.09 14.8374C16.45 15.0474 16.57 15.5074 16.35 15.8674Z" fill="#F5BA5A"/>
</svg>
