<svg width="24" height="25" viewBox="0 0 24 25" fill="none" xmlns="http://www.w3.org/2000/svg">
<path d="M4.45781 2.58721C3.38906 2.76533 2.41875 3.65596 2.07656 4.76221C1.99688 5.02939 1.99219 5.39502 1.99219 12.5669C1.99219 19.7388 1.99688 20.1044 2.07656 20.3716C2.38594 21.3747 3.19219 22.181 4.19531 22.4903C4.4625 22.57 4.82812 22.5747 12 22.5747C19.1719 22.5747 19.5375 22.57 19.8047 22.4903C20.8078 22.181 21.6141 21.3747 21.9234 20.3716C22.0031 20.1044 22.0078 19.7388 22.0078 12.5669C22.0078 5.39502 22.0031 5.02939 21.9234 4.76221C21.6141 3.76377 20.8547 2.99502 19.8281 2.64814C19.5797 2.56377 19.2516 2.55908 12.1406 2.55439C7.90313 2.54971 4.60313 2.56377 4.45781 2.58721ZM16.1484 9.18721C16.7016 9.43564 16.8844 10.0966 16.5469 10.6028C16.4719 10.7153 15.2766 11.9435 13.8891 13.3263C11.9766 15.2341 11.3156 15.8669 11.1562 15.9372C10.9031 16.0544 10.6078 16.0638 10.3688 15.9653C10.0969 15.8481 7.52344 13.27 7.37813 12.9653C7.2375 12.67 7.2375 12.4638 7.37813 12.1685C7.50469 11.8919 7.59375 11.8075 7.875 11.681C8.41406 11.4372 8.63438 11.5591 9.82031 12.7497L10.7578 13.6919L12.9844 11.4653C14.3906 10.0638 15.2719 9.21533 15.375 9.17314C15.6 9.07471 15.9234 9.08408 16.1484 9.18721Z" fill="#00C366"/>
</svg>
