<svg width="25" height="25" viewBox="0 0 25 25" fill="none" xmlns="http://www.w3.org/2000/svg">
<path d="M17.3 10.5H19.3C21.3 10.5 22.3 9.5 22.3 7.5V5.5C22.3 3.5 21.3 2.5 19.3 2.5H17.3C15.3 2.5 14.3 3.5 14.3 5.5V7.5C14.3 9.5 15.3 10.5 17.3 10.5Z" stroke="#484C52" stroke-width="1.5" stroke-miterlimit="10" stroke-linecap="round" stroke-linejoin="round"/>
<path d="M5.29999 22.5H7.29999C9.29999 22.5 10.3 21.5 10.3 19.5V17.5C10.3 15.5 9.29999 14.5 7.29999 14.5H5.29999C3.29999 14.5 2.29999 15.5 2.29999 17.5V19.5C2.29999 21.5 3.29999 22.5 5.29999 22.5Z" stroke="#484C52" stroke-width="1.5" stroke-miterlimit="10" stroke-linecap="round" stroke-linejoin="round"/>
<path d="M6.29999 10.5C8.50913 10.5 10.3 8.70914 10.3 6.5C10.3 4.29086 8.50913 2.5 6.29999 2.5C4.09085 2.5 2.29999 4.29086 2.29999 6.5C2.29999 8.70914 4.09085 10.5 6.29999 10.5Z" stroke="#484C52" stroke-width="1.5" stroke-miterlimit="10" stroke-linecap="round" stroke-linejoin="round"/>
<path d="M18.3 22.5C20.5091 22.5 22.3 20.7091 22.3 18.5C22.3 16.2909 20.5091 14.5 18.3 14.5C16.0908 14.5 14.3 16.2909 14.3 18.5C14.3 20.7091 16.0908 22.5 18.3 22.5Z" stroke="#484C52" stroke-width="1.5" stroke-miterlimit="10" stroke-linecap="round" stroke-linejoin="round"/>
</svg>
