<svg width="25" height="25" viewBox="0 0 25 25" fill="none" xmlns="http://www.w3.org/2000/svg">
<path d="M22.25 10.5V13.5C22.25 17.5 20.25 19.5 16.25 19.5H15.75C15.44 19.5 15.14 19.65 14.95 19.9L13.45 21.9C12.79 22.78 11.71 22.78 11.05 21.9L9.55 19.9C9.39 19.68 9.02 19.5 8.75 19.5H8.25C4.25 19.5 2.25 18.5 2.25 13.5V8.5C2.25 4.5 4.25 2.5 8.25 2.5H14.25" stroke="#484C52" stroke-width="1.5" stroke-miterlimit="10" stroke-linecap="round" stroke-linejoin="round"/>
<path d="M19.75 7.5C21.1307 7.5 22.25 6.38071 22.25 5C22.25 3.61929 21.1307 2.5 19.75 2.5C18.3693 2.5 17.25 3.61929 17.25 5C17.25 6.38071 18.3693 7.5 19.75 7.5Z" stroke="#484C52" stroke-width="1.5" stroke-linecap="round" stroke-linejoin="round"/>
<path d="M16.2465 11.5H16.2554" stroke="#484C52" stroke-width="2" stroke-linecap="round" stroke-linejoin="round"/>
<path d="M12.2455 11.5H12.2545" stroke="#484C52" stroke-width="2" stroke-linecap="round" stroke-linejoin="round"/>
<path d="M8.24451 11.5H8.25349" stroke="#484C52" stroke-width="2" stroke-linecap="round" stroke-linejoin="round"/>
</svg>
