<svg width="34" height="34" viewBox="0 0 34 34" fill="none" xmlns="http://www.w3.org/2000/svg">
<circle cx="16.9999" cy="17.031" r="15.8405" fill="#EE9692" stroke="white" stroke-width="2"/>
<path d="M14.8202 8.87519C14.3187 8.96426 13.8077 9.24082 13.503 9.59238C13.414 9.70019 13.2312 10.0049 13.0952 10.2674L12.8515 10.7502H11.7733C10.5452 10.7549 10.1468 10.7924 9.63115 10.9658C8.62334 11.2986 7.75615 12.2502 7.48428 13.3096C7.39521 13.6564 7.39053 13.8486 7.39053 17.9643C7.39053 22.7924 7.38115 22.6143 7.7374 23.3408C8.24834 24.3674 9.25615 25.0658 10.4046 25.1877C10.9812 25.2486 23.0187 25.2486 23.5952 25.1877C24.7437 25.0658 25.7515 24.3674 26.2624 23.3408C26.6187 22.6143 26.6093 22.7924 26.6093 17.9924C26.6093 13.1924 26.6187 13.3705 26.2624 12.6439C25.878 11.8705 25.1515 11.2236 24.3687 10.9658C23.853 10.7924 23.4499 10.7549 22.2265 10.7502H21.1483L20.9327 10.3143C20.553 9.55488 20.1499 9.16582 19.5124 8.9502C19.2405 8.86113 19.1093 8.85645 17.1405 8.84707C15.9921 8.84238 14.9515 8.85645 14.8202 8.87519ZM19.1655 9.90644C19.5358 10.0096 19.7187 10.2111 20.0796 10.9096C20.2624 11.2658 20.4593 11.6033 20.5108 11.6596C20.6093 11.7533 20.6608 11.758 22.1702 11.7861C23.8577 11.8143 23.9468 11.8236 24.4202 12.0955C24.7108 12.2689 25.0952 12.6486 25.2827 12.9627C25.3671 13.0986 25.4796 13.3799 25.5312 13.5814C25.6202 13.9377 25.6249 14.0924 25.6249 17.9924C25.6249 21.8924 25.6202 22.0471 25.5312 22.4033C25.3718 23.0268 24.978 23.5424 24.3921 23.8939C23.8483 24.2174 24.1858 24.2033 16.9999 24.2033C9.81396 24.2033 10.1515 24.2174 9.60771 23.8939C9.02178 23.5377 8.62803 23.0221 8.46865 22.3939C8.3749 22.0236 8.37021 21.9064 8.38428 17.8471L8.39834 13.6799L8.50615 13.4033C8.77803 12.6861 9.3499 12.1236 10.039 11.8893C10.2312 11.8236 10.5405 11.8049 11.8296 11.7861C13.339 11.758 13.3905 11.7533 13.489 11.6596C13.5405 11.6033 13.7374 11.2658 13.9202 10.9096C14.2765 10.2252 14.4265 10.0518 14.778 9.92988C15.0077 9.84551 18.8843 9.83144 19.1655 9.90644Z" fill="white"/>
<path d="M16.4608 12.7186C14.8202 12.8967 13.3436 13.9514 12.6358 15.4607C12.3218 16.1311 12.2046 16.6561 12.1999 17.4529C12.1952 18.3576 12.3171 18.9107 12.6921 19.6701C12.9405 20.1717 13.1093 20.4107 13.5499 20.8654C14.1733 21.5123 14.8999 21.9436 15.7811 22.1779C16.1655 22.2811 16.3249 22.2951 16.9765 22.2998C17.5952 22.2998 17.7968 22.2857 18.1249 22.2014C18.9921 21.9811 19.7186 21.5826 20.3468 20.9732C20.7827 20.5514 21.0452 20.1904 21.303 19.6795C21.678 18.9201 21.8046 18.3623 21.7999 17.4529C21.7952 16.8811 21.7765 16.7029 21.6733 16.3186C21.0499 13.9607 18.8749 12.4607 16.4608 12.7186ZM17.7405 13.7779C19.0858 14.0545 20.1593 15.0107 20.6233 16.3467C20.764 16.7498 20.7733 16.8061 20.7733 17.4764C20.7733 18.2826 20.7171 18.5592 20.4218 19.1686C19.939 20.167 19.0202 20.9123 17.914 21.2076C17.3936 21.3436 16.6061 21.3482 16.0858 21.2076C14.6702 20.8373 13.6296 19.7686 13.2921 18.3529C13.1608 17.8139 13.1843 16.942 13.3436 16.4451C13.953 14.5279 15.8374 13.3842 17.7405 13.7779Z" fill="white"/>
</svg>
