<svg width="18" height="19" viewBox="0 0 18 19" fill="none" xmlns="http://www.w3.org/2000/svg">
<path d="M6.50391 11.056C6.50391 12.0235 7.24641 12.8035 8.16891 12.8035H10.0514C10.8539 12.8035 11.5064 12.121 11.5064 11.281C11.5064 10.366 11.1089 10.0435 10.5164 9.83348L7.49391 8.78348C6.90141 8.57348 6.50391 8.25098 6.50391 7.33598C6.50391 6.49598 7.15641 5.81348 7.95891 5.81348H9.84141C10.7639 5.81348 11.5064 6.59348 11.5064 7.56098" stroke="#786CD6" stroke-width="1.5" stroke-linecap="round" stroke-linejoin="round"/>
<path d="M9 4.80859V13.8086" stroke="#786CD6" stroke-width="1.5" stroke-linecap="round" stroke-linejoin="round"/>
<path d="M9 16.8086C13.1421 16.8086 16.5 13.4507 16.5 9.30859C16.5 5.16646 13.1421 1.80859 9 1.80859C4.85786 1.80859 1.5 5.16646 1.5 9.30859C1.5 13.4507 4.85786 16.8086 9 16.8086Z" stroke="#786CD6" stroke-width="1.5" stroke-linecap="round" stroke-linejoin="round"/>
</svg>
