<svg width="34" height="35" viewBox="0 0 34 35" fill="none" xmlns="http://www.w3.org/2000/svg">
<path d="M22.9358 3.52246H11.0642C5.90751 3.52246 2.83334 6.59663 2.83334 11.7533V23.6108C2.83334 28.7816 5.90751 31.8558 11.0642 31.8558H22.9217C28.0783 31.8558 31.1525 28.7816 31.1525 23.625V11.7533C31.1667 6.59663 28.0925 3.52246 22.9358 3.52246ZM15.5125 25.495C15.1017 25.9058 14.3225 26.3025 13.7558 26.3875L10.2708 26.8833C10.1433 26.8975 10.0158 26.9116 9.88834 26.9116C9.30751 26.9116 8.76918 26.7133 8.38668 26.3308C7.91918 25.8633 7.72084 25.1833 7.83418 24.4325L8.33001 20.9475C8.41501 20.3666 8.79751 19.6016 9.22251 19.1908L15.5408 12.8725C15.6542 13.17 15.7675 13.4675 15.9233 13.8075C16.065 14.105 16.2208 14.4166 16.3908 14.7C16.5325 14.9408 16.6883 15.1675 16.8158 15.3375C16.9717 15.5783 17.1558 15.805 17.2692 15.9325C17.34 16.0316 17.3967 16.1025 17.425 16.1308C17.7792 16.5558 18.19 16.9525 18.5442 17.25C18.6433 17.3491 18.7 17.4058 18.7283 17.42C18.9408 17.59 19.1533 17.76 19.3375 17.8875C19.5642 18.0575 19.7908 18.2133 20.0317 18.3408C20.315 18.5108 20.6267 18.6666 20.9383 18.8225C21.2642 18.9641 21.5617 19.0916 21.8592 19.1908L15.5125 25.495ZM24.6075 16.4L23.3042 17.7175C23.2192 17.8025 23.1058 17.845 22.9925 17.845C22.95 17.845 22.8933 17.845 22.865 17.8308C19.9892 17.0091 17.6942 14.7141 16.8725 11.8383C16.83 11.6825 16.8725 11.5125 16.9858 11.4133L18.3033 10.0958C20.4567 7.94246 22.5108 7.98496 24.6217 10.0958C25.6983 11.1725 26.2225 12.2066 26.2225 13.2833C26.2083 14.3033 25.6842 15.3233 24.6075 16.4Z" fill="url(#paint0_linear_107_1245)"/>
<defs>
<linearGradient id="paint0_linear_107_1245" x1="28.3317" y1="6.0701" x2="5.00023" y2="25.9697" gradientUnits="userSpaceOnUse">
<stop stop-color="#4C6DD6"/>
<stop offset="1" stop-color="#EA6CD7"/>
</linearGradient>
</defs>
</svg>
