<svg width="14" height="17" viewBox="0 0 14 17" fill="none" xmlns="http://www.w3.org/2000/svg">
<path d="M12.8601 5.24069V12.5658C12.8601 15.4959 12.1276 16.2284 9.19754 16.2284H4.80246C1.87241 16.2284 1.13989 15.4959 1.13989 12.5658V5.24069C1.13989 2.31064 1.87241 1.57812 4.80246 1.57812H9.19754C12.1276 1.57812 12.8601 2.31064 12.8601 5.24069Z" stroke="#7B6F72" stroke-width="1.2" stroke-linecap="round" stroke-linejoin="round"/>
<path d="M8.46509 4.14185H5.53503" stroke="#7B6F72" stroke-width="1.2" stroke-linecap="round" stroke-linejoin="round"/>
<path d="M7.00002 14.104C7.62708 14.104 8.13542 13.5957 8.13542 12.9686C8.13542 12.3416 7.62708 11.8333 7.00002 11.8333C6.37296 11.8333 5.86462 12.3416 5.86462 12.9686C5.86462 13.5957 6.37296 14.104 7.00002 14.104Z" stroke="#7B6F72" stroke-width="1.2" stroke-linecap="round" stroke-linejoin="round"/>
</svg>
