<svg width="49" height="48" viewBox="0 0 49 48" fill="none" xmlns="http://www.w3.org/2000/svg">
<rect x="0.25" width="48" height="48" rx="12" fill="#F9FAFB"/>
<path d="M24.2499 13.9962C28.2998 13.9962 31.6065 17.191 31.7457 21.2453L31.7499 21.4962V25.5932L33.1299 28.7492C33.1989 28.9071 33.2346 29.0776 33.2346 29.25C33.2346 29.9403 32.6749 30.5 31.9846 30.5L27.2499 30.5015C27.2499 32.1583 25.9067 33.5015 24.2499 33.5015C22.6522 33.5015 21.3462 32.2526 21.255 30.6778L21.2494 30.4992L16.5247 30.5C16.3534 30.5 16.1839 30.4648 16.0267 30.3965C15.3935 30.1215 15.1032 29.3852 15.3782 28.752L16.7499 25.5941V21.4961C16.7505 17.3413 20.102 13.9962 24.2499 13.9962ZM25.7494 30.4992L22.7499 30.5015C22.7499 31.3299 23.4214 32.0015 24.2499 32.0015C25.0296 32.0015 25.6703 31.4066 25.743 30.6459L25.7494 30.4992ZM24.2499 15.4962C20.9297 15.4962 18.2503 18.1705 18.2499 21.4962V25.9058L16.9059 29H31.6024L30.2499 25.9068L30.25 21.5091L30.2462 21.2839C30.1352 18.0504 27.4914 15.4962 24.2499 15.4962Z" fill="#1D2734"/>
<circle cx="31.25" cy="17" r="4.5" fill="url(#paint0_linear_28_130)" stroke="white"/>
<defs>
<linearGradient id="paint0_linear_28_130" x1="34.4531" y1="13.7193" x2="27.8649" y2="19.3413" gradientUnits="userSpaceOnUse">
<stop stop-color="#4C6DD6"/>
<stop offset="1" stop-color="#EA6CD7"/>
</linearGradient>
</defs>
</svg>
