<svg width="18" height="19" viewBox="0 0 18 19" fill="none" xmlns="http://www.w3.org/2000/svg">
<path d="M9.12004 8.46109C9.04504 8.45359 8.95504 8.45359 8.87254 8.46109C7.08754 8.40109 5.67004 6.93859 5.67004 5.13859C5.67004 3.30109 7.15504 1.80859 9.00004 1.80859C10.8375 1.80859 12.33 3.30109 12.33 5.13859C12.3225 6.93859 10.905 8.40109 9.12004 8.46109Z" stroke="#786CD6" stroke-width="1.2" stroke-linecap="round" stroke-linejoin="round"/>
<path d="M5.37004 11.2286C3.55504 12.4436 3.55504 14.4236 5.37004 15.6311C7.43254 17.0111 10.815 17.0111 12.8775 15.6311C14.6925 14.4161 14.6925 12.4361 12.8775 11.2286C10.8225 9.85609 7.44004 9.85609 5.37004 11.2286Z" stroke="#786CD6" stroke-width="1.2" stroke-linecap="round" stroke-linejoin="round"/>
</svg>
