<svg width="77" height="77" viewBox="0 0 77 77" fill="none" xmlns="http://www.w3.org/2000/svg">
<circle cx="38.4391" cy="38.6061" r="38.0612" fill="url(#paint0_linear_100_709)"/>
<g clip-path="url(#clip0_100_709)">
<path d="M37.2671 24.3734C34.0913 24.5902 31.1851 25.68 28.6245 27.6077C28.021 28.0648 26.5503 29.5355 26.0933 30.139C24.7632 31.9027 23.9722 33.7015 23.5796 35.8226C23.4507 36.5081 23.4038 38.5238 23.4917 39.2269C23.7437 41.1956 24.4233 43.0824 25.4312 44.6351L25.7944 45.1917L25.7241 45.7718C25.4019 48.5726 24.6987 50.6644 23.6909 51.8187C23.48 52.0589 23.439 52.1527 23.439 52.3519C23.439 52.6038 23.5796 52.7913 23.8257 52.8675C24.1245 52.9554 27.0308 52.2992 28.6304 51.7835C29.7671 51.4144 31.0854 50.8812 31.7886 50.5062L32.3218 50.2249L32.7847 50.3949C34.478 51.0218 36.5405 51.3792 38.439 51.3792C46.1206 51.3792 52.6069 46.1234 53.3862 39.262C53.4741 38.4593 53.4272 36.5199 53.2983 35.8226C52.9058 33.6956 52.1206 31.9085 50.7847 30.139C50.3276 29.5355 48.8569 28.0648 48.2534 27.6077C45.646 25.6449 42.8101 24.596 39.4878 24.3675C38.5503 24.3031 38.2456 24.3031 37.2671 24.3734ZM32.1284 36.0277C32.8726 36.3089 33.3999 37.0765 33.3999 37.8909C33.3999 39.0218 32.2222 40.0062 31.1265 39.7835C30.6753 39.6956 30.3296 39.5023 30.0249 39.18C29.6851 38.8167 29.521 38.4417 29.4917 37.9613C29.4331 37.1292 29.9897 36.2972 30.8101 35.9984C31.144 35.8753 31.7593 35.8929 32.1284 36.0277ZM39.2886 36.098C40.478 36.7132 40.7534 38.2601 39.8394 39.1976C39.4351 39.6136 39.0015 39.8011 38.439 39.8011C38.0874 39.8011 37.9292 39.7659 37.6597 39.6429C36.6636 39.1859 36.2124 38.0257 36.6694 37.0648C36.9214 36.5316 37.355 36.1449 37.9116 35.9632C37.9937 35.9339 38.269 35.9222 38.5269 35.9339C38.8901 35.9456 39.0601 35.9808 39.2886 36.098ZM46.2378 36.0745C46.6714 36.2855 46.9702 36.5843 47.1812 37.012C47.3511 37.3577 47.3745 37.4574 47.3745 37.8734C47.3687 38.4417 47.2456 38.764 46.853 39.18C46.0562 40.0296 44.8257 40.0238 44.0112 39.1624C43.5425 38.6702 43.3667 37.973 43.5483 37.3519C43.7183 36.7659 44.187 36.2445 44.7319 36.0277C45.1421 35.8636 45.8569 35.887 46.2378 36.0745Z" fill="white"/>
</g>
<defs>
<linearGradient id="paint0_linear_100_709" x1="68.9177" y1="7.38959" x2="6.22889" y2="60.884" gradientUnits="userSpaceOnUse">
<stop stop-color="#4C6DD6"/>
<stop offset="1" stop-color="#EA6CD7"/>
</linearGradient>
<clipPath id="clip0_100_709">
<rect width="30" height="30" fill="white" transform="translate(23.439 23.606)"/>
</clipPath>
</defs>
</svg>
