<svg width="18" height="19" viewBox="0 0 18 19" fill="none" xmlns="http://www.w3.org/2000/svg">
<path d="M7.32046 11.6783C6.88921 11.2478 6.62671 10.6628 6.62671 10.0066C6.62671 8.69183 7.68571 7.63208 8.99971 7.63208C9.64996 7.63208 10.2485 7.89533 10.6722 8.32583" stroke="#ADA4A5" stroke-width="1.2" stroke-linecap="round" stroke-linejoin="round"/>
<path d="M11.3287 10.4275C11.1547 11.395 10.3927 12.1585 9.4259 12.334" stroke="#ADA4A5" stroke-width="1.2" stroke-linecap="round" stroke-linejoin="round"/>
<path d="M4.99101 14.0076C3.80076 13.0731 2.79276 11.7081 2.06226 10.0063C2.80026 8.29705 3.81501 6.92455 5.01276 5.98255C6.20301 5.04055 7.57626 4.52905 8.99976 4.52905C10.4315 4.52905 11.804 5.04805 13.0018 5.9968" stroke="#ADA4A5" stroke-width="1.2" stroke-linecap="round" stroke-linejoin="round"/>
<path d="M14.5857 7.64648C15.1017 8.33198 15.5555 9.12323 15.9372 10.006C14.462 13.4237 11.855 15.4825 8.99971 15.4825C8.35246 15.4825 7.71421 15.3775 7.10071 15.1727" stroke="#ADA4A5" stroke-width="1.2" stroke-linecap="round" stroke-linejoin="round"/>
</svg>
