<svg width="24" height="25" viewBox="0 0 24 25" fill="none" xmlns="http://www.w3.org/2000/svg">
<path d="M7.54267 2.29004C6.43642 2.51035 5.47548 3.25098 4.99267 4.2541C4.56611 5.14473 4.52392 6.2791 4.88955 7.18848C5.08642 7.67129 5.30673 7.99473 5.71923 8.40723C6.0333 8.72129 6.21142 8.85254 6.53955 9.02598C7.20986 9.36816 7.41142 9.41504 8.25048 9.41504C9.08955 9.41504 9.28642 9.36816 9.96142 9.02598C10.6645 8.66504 11.2974 7.96191 11.6114 7.18848C12.0802 6.02129 11.888 4.64316 11.1099 3.6166C10.3083 2.55723 8.87392 2.02285 7.54267 2.29004Z" fill="white"/>
<path d="M4.44893 10.2822C3.94736 10.3713 3.1083 11.1307 2.55518 11.9979C2.11455 12.6869 1.91768 13.2354 1.78643 14.1729C1.56611 15.715 1.52861 16.2494 1.52861 17.9463L1.52393 19.5869L1.69736 19.9479C1.9833 20.5479 2.4333 20.951 3.03799 21.1525C3.31924 21.251 3.41299 21.251 7.35986 21.251H11.3958L11.1942 20.9791C10.5802 20.1729 10.1302 19.165 9.90518 18.1104C9.7833 17.5432 9.7833 15.9588 9.90518 15.3963C10.2005 14.0229 10.8333 12.8275 11.7849 11.8432C12.0427 11.5713 12.4317 11.2244 12.6427 11.0697C12.8583 10.915 13.0317 10.7697 13.0317 10.7463C13.0317 10.7041 12.7083 10.4744 12.4833 10.3572C12.3989 10.315 12.2208 10.2822 12.0849 10.2822C11.8646 10.2822 11.7942 10.3104 11.5083 10.4979C10.8427 10.9385 9.96611 11.2854 9.19736 11.4119C8.79893 11.4729 7.88955 11.4729 7.49111 11.4119C6.73174 11.29 5.87393 10.9572 5.2458 10.5354C4.88486 10.2963 4.70205 10.24 4.44893 10.2822Z" fill="white"/>
<path d="M15.7083 11.2242C14.2927 11.5195 13.0036 12.3867 12.2114 13.568C11.8974 14.0367 11.5552 14.7867 11.4099 15.3211C11.3021 15.7195 11.2833 15.9117 11.2646 16.5867C11.2458 17.2711 11.2552 17.4492 11.3442 17.8711C11.7521 19.8727 13.163 21.4664 15.0989 22.1133C16.1489 22.4648 17.5927 22.4648 18.6521 22.1133C20.5692 21.4758 22.0036 19.8633 22.4021 17.8898C22.538 17.2336 22.538 16.268 22.4021 15.6117C21.9427 13.3523 20.138 11.5898 17.888 11.1961C17.2927 11.093 16.2661 11.107 15.7083 11.2242ZM17.2036 13.4133C17.3911 13.507 17.5786 13.7602 17.5786 13.9195C17.5786 13.9945 17.6067 14.032 17.663 14.032C17.7849 14.032 18.4552 14.3367 18.6333 14.4773C18.8442 14.6367 18.938 14.8195 18.938 15.0727C18.938 15.457 18.6286 15.7664 18.2489 15.7664C18.113 15.7664 17.9442 15.7148 17.7333 15.607C17.0302 15.2508 16.2661 15.2977 16.2661 15.6961C16.2661 15.8273 16.3739 15.8742 17.1286 16.0758C18.1411 16.3477 18.6849 16.718 18.8677 17.2711C18.9896 17.6414 18.9474 18.2414 18.7739 18.593C18.5724 19.0055 18.1927 19.3055 17.6677 19.4836C17.6255 19.4977 17.5786 19.5727 17.5646 19.6477C17.5271 19.8398 17.3255 20.0648 17.1286 20.1258C16.9271 20.1961 16.6364 20.1633 16.4724 20.0555C16.3271 19.9617 16.1724 19.7133 16.1724 19.5773C16.1724 19.5023 16.1349 19.4695 16.0224 19.4461C15.7974 19.3945 15.1833 19.1086 15.0567 18.9867C14.6817 18.6352 14.7474 18.0586 15.188 17.8242C15.4317 17.693 15.6567 17.7117 16.0177 17.8992C16.3786 18.082 16.838 18.1711 17.1427 18.1148C17.3958 18.068 17.4849 17.993 17.4849 17.8242C17.4849 17.6977 17.4661 17.6836 17.0771 17.5711C15.9755 17.243 15.7599 17.168 15.563 17.0414C15.2864 16.868 15.0614 16.6336 14.9396 16.3992C14.8177 16.1648 14.7802 15.593 14.8599 15.2508C14.9771 14.7586 15.4224 14.2711 15.9239 14.0789C16.0974 14.0133 16.1489 13.9664 16.1958 13.8258C16.2286 13.7273 16.2942 13.6055 16.3458 13.5539C16.5427 13.3336 16.9177 13.268 17.2036 13.4133Z" fill="white"/>
</svg>
