<svg width="34" height="35" viewBox="0 0 34 35" fill="none" xmlns="http://www.w3.org/2000/svg">
<path d="M12.7493 14.9363C14.3142 14.9363 15.5827 13.6678 15.5827 12.103C15.5827 10.5382 14.3142 9.26965 12.7493 9.26965C11.1845 9.26965 9.91602 10.5382 9.91602 12.103C9.91602 13.6678 11.1845 14.9363 12.7493 14.9363Z" stroke="#949494" stroke-width="2.5" stroke-linecap="round" stroke-linejoin="round"/>
<path d="M18.4173 3.60315H12.7507C5.66732 3.60315 2.83398 6.43648 2.83398 13.5198V22.0198C2.83398 29.1032 5.66732 31.9365 12.7507 31.9365H21.2507C28.334 31.9365 31.1673 29.1032 31.1673 22.0198V14.9365" stroke="#949494" stroke-width="2.5" stroke-linecap="round" stroke-linejoin="round"/>
<path d="M25.5 12.103V3.60303L28.3333 6.43636" stroke="#949494" stroke-width="2.5" stroke-linecap="round" stroke-linejoin="round"/>
<path d="M25.4993 3.60315L22.666 6.43648" stroke="#949494" stroke-width="2.5" stroke-linecap="round" stroke-linejoin="round"/>
<path d="M3.7832 27.6156L10.7674 22.9264C11.8865 22.1756 13.5015 22.2606 14.5074 23.1248L14.9749 23.5356C16.0799 24.4848 17.8649 24.4848 18.9699 23.5356L24.8632 18.4781C25.9682 17.5289 27.7532 17.5289 28.8582 18.4781L31.1674 20.4614" stroke="#949494" stroke-width="2.5" stroke-linecap="round" stroke-linejoin="round"/>
</svg>
